<?xml version="1.0" encoding="UTF-8" standalone="no"?>
<svg width="677.333mm" height="381mm"
 viewBox="0 0 1920 1080"
 xmlns="http://www.w3.org/2000/svg" xmlns:xlink="http://www.w3.org/1999/xlink"  version="1.2" baseProfile="tiny">
<title>SVG export from MAPIO</title>
<desc>An SVG created by the Visution MAPIO</desc>
<defs>
</defs>
<g fill="none" stroke="black" stroke-width="1" fill-rule="evenodd" stroke-linecap="square" stroke-linejoin="bevel" >

<g fill="none" stroke="#000000" stroke-opacity="1" stroke-width="1" stroke-linecap="square" stroke-linejoin="bevel" transform="matrix(1,0,0,1,0,0)"
font-family="Lucida Grande" font-size="16" font-weight="100" font-style="normal" 
>
<path vector-effect="non-scaling-stroke" fill-rule="evenodd" d="M3.6275e-07,0 L55.1445,12.8532 L110.289,25.7064 L165.434,38.5597 L220.578,51.4129 L275.723,64.2661 L330.867,77.1193 L386.012,89.9726 L441.156,102.826 L496.301,115.679 L551.445,128.532 L606.59,141.385 L661.734,154.239 L716.879,167.092 L772.023,179.945 L827.168,192.798 L882.312,205.652 L876.635,242.542 L870.957,279.432 L865.279,316.322 L859.601,353.213 L853.924,390.103 L848.246,426.993 L842.568,463.884 L836.891,500.774 L831.213,537.664 L825.535,574.554 L819.857,611.445 L814.18,648.335 L808.502,685.225 L802.824,722.115 L797.146,759.006 L791.469,795.896 L742.002,813.59 L692.535,831.284 L643.068,848.978 L593.602,866.672 L544.135,884.366 L494.668,902.06 L445.201,919.754 L395.734,937.448 L346.268,955.142 L296.801,972.836 L247.334,990.53 L197.867,1008.22 L148.4,1025.92 L98.9336,1043.61 L49.4668,1061.31 L3.6275e-07,1079 L3.6275e-07,1011.56 L3.6275e-07,944.125 L3.6275e-07,876.688 L3.6275e-07,809.25 L3.6275e-07,741.812 L3.6275e-07,674.375 L3.6275e-07,606.938 L3.6275e-07,539.5 L3.6275e-07,472.062 L3.6275e-07,404.625 L3.6275e-07,337.188 L3.6275e-07,269.75 L3.6275e-07,202.312 L3.6275e-07,134.875 L3.6275e-07,67.4375 L3.6275e-07,0"/>
</g>

<g fill="none" stroke="#000000" stroke-opacity="1" stroke-width="1" stroke-linecap="square" stroke-linejoin="bevel" transform="matrix(1,0,0,1,0,0)"
font-family="Lucida Grande" font-size="16" font-weight="100" font-style="normal" 
>
<path vector-effect="non-scaling-stroke" fill-rule="evenodd" d="M959.5,0 L1019.47,0.205642 L1079.44,0.411284 L1139.41,0.616926 L1199.38,0.822569 L1259.34,1.02821 L1319.31,1.23385 L1379.28,1.43949 L1439.25,1.64514 L1499.22,1.85078 L1559.19,2.05642 L1619.16,2.26206 L1679.12,2.46771 L1739.09,2.67335 L1799.06,2.87899 L1859.03,3.08463 L1919,3.29027 L1898.84,48.7241 L1878.68,94.158 L1858.52,139.592 L1838.36,185.026 L1818.19,230.46 L1798.03,275.894 L1777.87,321.327 L1757.71,366.761 L1737.55,412.195 L1717.39,457.629 L1697.23,503.063 L1677.07,548.497 L1656.91,593.931 L1636.75,639.365 L1616.58,684.798 L1596.42,730.232 L1556.62,684.593 L1516.81,638.953 L1477,593.314 L1437.19,547.674 L1397.39,502.035 L1357.58,456.395 L1317.77,410.756 L1277.96,365.116 L1238.15,319.477 L1198.35,273.837 L1158.54,228.198 L1118.73,182.558 L1078.92,136.919 L1039.12,91.279 L999.308,45.6395 L959.5,0"/>
</g>
</g>
</svg>
