<?xml version="1.0" encoding="UTF-8" standalone="no"?>
<svg width="677.333mm" height="381mm"
 viewBox="0 0 1920 1080"
 xmlns="http://www.w3.org/2000/svg" xmlns:xlink="http://www.w3.org/1999/xlink"  version="1.2" baseProfile="tiny">
<title>SVG export from MAPIO</title>
<desc>An SVG created by the Visution MAPIO</desc>
<defs>
</defs>
<g fill="none" stroke="black" stroke-width="1" fill-rule="evenodd" stroke-linecap="square" stroke-linejoin="bevel" >

<g fill="none" stroke="#000000" stroke-opacity="1" stroke-width="1" stroke-linecap="square" stroke-linejoin="bevel" transform="matrix(1,0,0,1,0,0)"
font-family="Lucida Grande" font-size="16" font-weight="100" font-style="normal" 
>
<path vector-effect="non-scaling-stroke" fill-rule="evenodd" d="M1140,184.284 L1188.69,172.767 L1237.38,161.249 L1286.06,149.731 L1334.75,138.213 L1383.44,126.695 L1432.13,115.178 L1480.81,103.66 L1529.5,92.1422 L1578.19,80.6244 L1626.88,69.1066 L1675.56,57.5889 L1724.25,46.0711 L1772.94,34.5533 L1821.63,23.0355 L1870.31,11.5178 L1919,0 L1919,67.4375 L1919,134.875 L1919,202.312 L1919,269.75 L1919,337.188 L1919,404.625 L1919,472.062 L1919,539.5 L1919,606.938 L1919,674.375 L1919,741.812 L1919,809.25 L1919,876.688 L1919,944.125 L1919,1011.56 L1919,1079 L1870.87,1060.97 L1822.74,1042.94 L1774.61,1024.92 L1726.48,1006.89 L1678.35,988.861 L1630.22,970.833 L1582.08,952.805 L1533.95,934.777 L1485.82,916.749 L1437.69,898.721 L1389.56,880.694 L1341.43,862.666 L1293.3,844.638 L1245.17,826.61 L1197.04,808.582 L1148.91,790.554 L1148.35,752.663 L1147.79,714.771 L1147.24,676.879 L1146.68,638.987 L1146.12,601.095 L1145.57,563.203 L1145.01,525.311 L1144.45,487.419 L1143.9,449.527 L1143.34,411.636 L1142.78,373.744 L1142.23,335.852 L1141.67,297.96 L1141.11,260.068 L1140.56,222.176 L1140,184.284"/>
</g>

<g fill="none" stroke="#000000" stroke-opacity="1" stroke-width="1" stroke-linecap="square" stroke-linejoin="bevel" transform="matrix(1,0,0,1,0,0)"
font-family="Lucida Grande" font-size="16" font-weight="100" font-style="normal" 
>
<path vector-effect="non-scaling-stroke" fill-rule="evenodd" d="M3.6275e-07,0 L55.1445,12.8532 L110.289,25.7064 L165.434,38.5597 L220.578,51.4129 L275.723,64.2661 L330.867,77.1193 L386.012,89.9726 L441.156,102.826 L496.301,115.679 L551.445,128.532 L606.59,141.385 L661.734,154.239 L716.879,167.092 L772.023,179.945 L827.168,192.798 L882.312,205.652 L876.635,242.542 L870.957,279.432 L865.279,316.322 L859.601,353.213 L853.924,390.103 L848.246,426.993 L842.568,463.884 L836.891,500.774 L831.213,537.664 L825.535,574.554 L819.857,611.445 L814.18,648.335 L808.502,685.225 L802.824,722.115 L797.146,759.006 L791.469,795.896 L742.002,813.59 L692.535,831.284 L643.068,848.978 L593.602,866.672 L544.135,884.366 L494.668,902.06 L445.201,919.754 L395.734,937.448 L346.268,955.142 L296.801,972.836 L247.334,990.53 L197.867,1008.22 L148.4,1025.92 L98.9336,1043.61 L49.4668,1061.31 L3.6275e-07,1079 L3.6275e-07,1011.56 L3.6275e-07,944.125 L3.6275e-07,876.688 L3.6275e-07,809.25 L3.6275e-07,741.812 L3.6275e-07,674.375 L3.6275e-07,606.938 L3.6275e-07,539.5 L3.6275e-07,472.062 L3.6275e-07,404.625 L3.6275e-07,337.188 L3.6275e-07,269.75 L3.6275e-07,202.312 L3.6275e-07,134.875 L3.6275e-07,67.4375 L3.6275e-07,0"/>
</g>
</g>
</svg>
